<svg width="40" height="40" viewBox="0 0 40 40" fill="none" xmlns="http://www.w3.org/2000/svg">
<path d="M29.7852 2.55371C32.4132 7.78995 33.8951 13.7193 33.8951 20.0004C33.8951 26.2816 32.4131 32.2111 29.7852 37.4473C35.8687 34.0853 39.9979 27.533 39.9979 20.0005C39.9979 12.4681 35.8687 5.91575 29.7852 2.55371Z" fill="#4B24EE"/>
<path d="M20.6517 1.74409C19.7425 0.474749 18.1937 -0.208865 16.6403 0.0568003C7.18792 1.67342 0 9.79669 0 19.5745C0 29.3522 7.18788 37.4755 16.6402 39.0921C18.1936 39.3578 19.7425 38.6742 20.6517 37.4049C24.2621 32.3643 26.383 26.2135 26.383 19.5744C26.383 12.9354 24.2621 6.78461 20.6517 1.74409Z" fill="#4B24EE"/>
</svg>
